<mxfile host="app.diagrams.net" modified="2023-12-10T18:02:42.489Z" agent="Mozilla/5.0 (Windows NT 10.0; Win64; x64) AppleWebKit/537.36 (KHTML, like Gecko) Chrome/118.0.0.0 Safari/537.36 OPR/104.0.0.0" etag="QeIuJ_13xCcB7kSRRW3S" version="22.1.7" type="github">
  <diagram id="prtHgNgQTEPvFCAcTncT" name="Page-1">
    <mxGraphModel dx="2060" dy="898" grid="1" gridSize="10" guides="1" tooltips="1" connect="1" arrows="1" fold="1" page="1" pageScale="1" pageWidth="827" pageHeight="1169" math="0" shadow="0">
      <root>
        <mxCell id="0" />
        <mxCell id="1" parent="0" />
        <mxCell id="u7SajtFIFtGNWAoB0oiT-1" value="Activity Diagram" style="swimlane;childLayout=stackLayout;resizeParent=1;resizeParentMax=0;startSize=20;html=1;" vertex="1" parent="1">
          <mxGeometry x="240" y="80" width="795" height="730" as="geometry" />
        </mxCell>
        <mxCell id="u7SajtFIFtGNWAoB0oiT-2" value="Player" style="swimlane;startSize=20;html=1;" vertex="1" parent="u7SajtFIFtGNWAoB0oiT-1">
          <mxGeometry y="20" width="290" height="710" as="geometry" />
        </mxCell>
        <mxCell id="u7SajtFIFtGNWAoB0oiT-5" value="" style="ellipse;whiteSpace=wrap;html=1;rounded=0;labelBackgroundColor=none;fillColor=#FFFFFF;" vertex="1" parent="u7SajtFIFtGNWAoB0oiT-2">
          <mxGeometry x="105" y="40" width="10" height="10" as="geometry" />
        </mxCell>
        <mxCell id="u7SajtFIFtGNWAoB0oiT-8" value="" style="endArrow=classic;html=1;rounded=0;" edge="1" parent="u7SajtFIFtGNWAoB0oiT-2">
          <mxGeometry width="50" height="50" relative="1" as="geometry">
            <mxPoint x="109.5" y="50" as="sourcePoint" />
            <mxPoint x="109.92" y="80" as="targetPoint" />
          </mxGeometry>
        </mxCell>
        <mxCell id="u7SajtFIFtGNWAoB0oiT-12" value="Register" style="rounded=1;whiteSpace=wrap;html=1;" vertex="1" parent="u7SajtFIFtGNWAoB0oiT-2">
          <mxGeometry x="75" y="130" width="70" height="20" as="geometry" />
        </mxCell>
        <mxCell id="u7SajtFIFtGNWAoB0oiT-7" value="Login" style="rounded=1;whiteSpace=wrap;html=1;" vertex="1" parent="u7SajtFIFtGNWAoB0oiT-2">
          <mxGeometry x="75" y="170" width="70" height="20" as="geometry" />
        </mxCell>
        <mxCell id="u7SajtFIFtGNWAoB0oiT-21" style="edgeStyle=orthogonalEdgeStyle;rounded=0;orthogonalLoop=1;jettySize=auto;html=1;entryX=0.5;entryY=0;entryDx=0;entryDy=0;" edge="1" parent="u7SajtFIFtGNWAoB0oiT-2" source="u7SajtFIFtGNWAoB0oiT-20" target="u7SajtFIFtGNWAoB0oiT-12">
          <mxGeometry relative="1" as="geometry" />
        </mxCell>
        <mxCell id="u7SajtFIFtGNWAoB0oiT-22" style="edgeStyle=orthogonalEdgeStyle;rounded=0;orthogonalLoop=1;jettySize=auto;html=1;entryX=0;entryY=0.5;entryDx=0;entryDy=0;" edge="1" parent="u7SajtFIFtGNWAoB0oiT-2" source="u7SajtFIFtGNWAoB0oiT-20" target="u7SajtFIFtGNWAoB0oiT-7">
          <mxGeometry relative="1" as="geometry">
            <mxPoint x="60" y="180" as="targetPoint" />
            <Array as="points">
              <mxPoint x="20" y="95" />
              <mxPoint x="20" y="180" />
            </Array>
          </mxGeometry>
        </mxCell>
        <mxCell id="u7SajtFIFtGNWAoB0oiT-23" value="[already registered]" style="edgeLabel;html=1;align=center;verticalAlign=middle;resizable=0;points=[];" vertex="1" connectable="0" parent="u7SajtFIFtGNWAoB0oiT-22">
          <mxGeometry x="-0.6529" y="-2" relative="1" as="geometry">
            <mxPoint x="-87" y="32" as="offset" />
          </mxGeometry>
        </mxCell>
        <mxCell id="u7SajtFIFtGNWAoB0oiT-20" value="" style="rhombus;whiteSpace=wrap;html=1;" vertex="1" parent="u7SajtFIFtGNWAoB0oiT-2">
          <mxGeometry x="95" y="80" width="30" height="30" as="geometry" />
        </mxCell>
        <mxCell id="u7SajtFIFtGNWAoB0oiT-32" value="Play game" style="rounded=1;whiteSpace=wrap;html=1;" vertex="1" parent="u7SajtFIFtGNWAoB0oiT-2">
          <mxGeometry x="75" y="260" width="70" height="20" as="geometry" />
        </mxCell>
        <mxCell id="u7SajtFIFtGNWAoB0oiT-42" value="" style="verticalLabelPosition=bottom;verticalAlign=top;html=1;shape=mxgraph.basic.donut;dx=4.5;" vertex="1" parent="u7SajtFIFtGNWAoB0oiT-2">
          <mxGeometry x="100" y="650" width="20" height="20" as="geometry" />
        </mxCell>
        <mxCell id="u7SajtFIFtGNWAoB0oiT-24" value="[not yet registered]" style="text;html=1;align=center;verticalAlign=middle;resizable=0;points=[];autosize=1;strokeColor=none;fillColor=none;" vertex="1" parent="u7SajtFIFtGNWAoB0oiT-2">
          <mxGeometry x="105" y="100" width="120" height="30" as="geometry" />
        </mxCell>
        <mxCell id="u7SajtFIFtGNWAoB0oiT-3" value="S" style="swimlane;startSize=20;html=1;" vertex="1" parent="u7SajtFIFtGNWAoB0oiT-1">
          <mxGeometry x="290" y="20" width="250" height="710" as="geometry" />
        </mxCell>
        <mxCell id="u7SajtFIFtGNWAoB0oiT-27" value="Display error" style="rounded=1;whiteSpace=wrap;html=1;" vertex="1" parent="u7SajtFIFtGNWAoB0oiT-3">
          <mxGeometry x="80" y="360" width="100" height="30" as="geometry" />
        </mxCell>
        <mxCell id="u7SajtFIFtGNWAoB0oiT-28" value="[successful registration]" style="text;html=1;align=center;verticalAlign=middle;resizable=0;points=[];autosize=1;strokeColor=none;fillColor=none;" vertex="1" parent="u7SajtFIFtGNWAoB0oiT-3">
          <mxGeometry x="170" y="140" width="150" height="30" as="geometry" />
        </mxCell>
        <mxCell id="u7SajtFIFtGNWAoB0oiT-37" style="edgeStyle=orthogonalEdgeStyle;rounded=0;orthogonalLoop=1;jettySize=auto;html=1;entryX=0.5;entryY=0;entryDx=0;entryDy=0;exitX=0.435;exitY=1.053;exitDx=0;exitDy=0;exitPerimeter=0;" edge="1" parent="u7SajtFIFtGNWAoB0oiT-3" source="u7SajtFIFtGNWAoB0oiT-35" target="u7SajtFIFtGNWAoB0oiT-36">
          <mxGeometry relative="1" as="geometry" />
        </mxCell>
        <mxCell id="u7SajtFIFtGNWAoB0oiT-35" value="Display introduction" style="rounded=1;whiteSpace=wrap;html=1;" vertex="1" parent="u7SajtFIFtGNWAoB0oiT-3">
          <mxGeometry x="20" y="400" width="120" height="30" as="geometry" />
        </mxCell>
        <mxCell id="u7SajtFIFtGNWAoB0oiT-36" value="Display game proper" style="rounded=1;whiteSpace=wrap;html=1;" vertex="1" parent="u7SajtFIFtGNWAoB0oiT-3">
          <mxGeometry x="10" y="455" width="120" height="30" as="geometry" />
        </mxCell>
        <mxCell id="u7SajtFIFtGNWAoB0oiT-67" style="edgeStyle=orthogonalEdgeStyle;rounded=0;orthogonalLoop=1;jettySize=auto;html=1;entryX=0.5;entryY=0;entryDx=0;entryDy=0;" edge="1" parent="u7SajtFIFtGNWAoB0oiT-3" source="u7SajtFIFtGNWAoB0oiT-58" target="u7SajtFIFtGNWAoB0oiT-66">
          <mxGeometry relative="1" as="geometry" />
        </mxCell>
        <mxCell id="u7SajtFIFtGNWAoB0oiT-58" value="Display game menu" style="rounded=1;whiteSpace=wrap;html=1;" vertex="1" parent="u7SajtFIFtGNWAoB0oiT-3">
          <mxGeometry x="10" y="510" width="120" height="30" as="geometry" />
        </mxCell>
        <mxCell id="u7SajtFIFtGNWAoB0oiT-39" value="Exit Game" style="rounded=1;whiteSpace=wrap;html=1;" vertex="1" parent="u7SajtFIFtGNWAoB0oiT-3">
          <mxGeometry x="10" y="645" width="120" height="30" as="geometry" />
        </mxCell>
        <mxCell id="u7SajtFIFtGNWAoB0oiT-40" style="edgeStyle=orthogonalEdgeStyle;rounded=0;orthogonalLoop=1;jettySize=auto;html=1;entryX=0.5;entryY=0;entryDx=0;entryDy=0;" edge="1" parent="u7SajtFIFtGNWAoB0oiT-3" source="u7SajtFIFtGNWAoB0oiT-36" target="u7SajtFIFtGNWAoB0oiT-58">
          <mxGeometry relative="1" as="geometry">
            <mxPoint x="80" y="510" as="targetPoint" />
            <Array as="points" />
          </mxGeometry>
        </mxCell>
        <mxCell id="u7SajtFIFtGNWAoB0oiT-65" style="edgeStyle=orthogonalEdgeStyle;rounded=0;orthogonalLoop=1;jettySize=auto;html=1;entryX=1;entryY=0.5;entryDx=0;entryDy=0;" edge="1" parent="u7SajtFIFtGNWAoB0oiT-3" source="u7SajtFIFtGNWAoB0oiT-63" target="u7SajtFIFtGNWAoB0oiT-36">
          <mxGeometry relative="1" as="geometry">
            <mxPoint x="205" y="470" as="targetPoint" />
            <Array as="points">
              <mxPoint x="205" y="470" />
            </Array>
          </mxGeometry>
        </mxCell>
        <mxCell id="u7SajtFIFtGNWAoB0oiT-63" value="Resume game" style="rounded=1;whiteSpace=wrap;html=1;" vertex="1" parent="u7SajtFIFtGNWAoB0oiT-3">
          <mxGeometry x="160" y="510" width="90" height="30" as="geometry" />
        </mxCell>
        <mxCell id="u7SajtFIFtGNWAoB0oiT-68" style="edgeStyle=orthogonalEdgeStyle;rounded=0;orthogonalLoop=1;jettySize=auto;html=1;entryX=0.5;entryY=0;entryDx=0;entryDy=0;" edge="1" parent="u7SajtFIFtGNWAoB0oiT-3" source="u7SajtFIFtGNWAoB0oiT-66" target="u7SajtFIFtGNWAoB0oiT-39">
          <mxGeometry relative="1" as="geometry" />
        </mxCell>
        <mxCell id="u7SajtFIFtGNWAoB0oiT-69" style="edgeStyle=orthogonalEdgeStyle;rounded=0;orthogonalLoop=1;jettySize=auto;html=1;entryX=0.5;entryY=1;entryDx=0;entryDy=0;" edge="1" parent="u7SajtFIFtGNWAoB0oiT-3" source="u7SajtFIFtGNWAoB0oiT-66" target="u7SajtFIFtGNWAoB0oiT-63">
          <mxGeometry relative="1" as="geometry">
            <mxPoint x="200" y="595" as="targetPoint" />
          </mxGeometry>
        </mxCell>
        <mxCell id="u7SajtFIFtGNWAoB0oiT-66" value="" style="rhombus;whiteSpace=wrap;html=1;" vertex="1" parent="u7SajtFIFtGNWAoB0oiT-3">
          <mxGeometry x="55" y="580" width="30" height="30" as="geometry" />
        </mxCell>
        <mxCell id="u7SajtFIFtGNWAoB0oiT-4" value="Database" style="swimlane;startSize=20;html=1;" vertex="1" parent="u7SajtFIFtGNWAoB0oiT-1">
          <mxGeometry x="540" y="20" width="255" height="710" as="geometry" />
        </mxCell>
        <mxCell id="u7SajtFIFtGNWAoB0oiT-13" style="edgeStyle=orthogonalEdgeStyle;rounded=0;orthogonalLoop=1;jettySize=auto;html=1;entryX=0.5;entryY=0;entryDx=0;entryDy=0;" edge="1" parent="u7SajtFIFtGNWAoB0oiT-4" source="u7SajtFIFtGNWAoB0oiT-11" target="u7SajtFIFtGNWAoB0oiT-15">
          <mxGeometry relative="1" as="geometry">
            <mxPoint x="70" y="150" as="targetPoint" />
          </mxGeometry>
        </mxCell>
        <mxCell id="u7SajtFIFtGNWAoB0oiT-11" value="Check details availability" style="rounded=1;whiteSpace=wrap;html=1;" vertex="1" parent="u7SajtFIFtGNWAoB0oiT-4">
          <mxGeometry x="70" y="95" width="100" height="30" as="geometry" />
        </mxCell>
        <mxCell id="u7SajtFIFtGNWAoB0oiT-15" value="" style="rhombus;whiteSpace=wrap;html=1;" vertex="1" parent="u7SajtFIFtGNWAoB0oiT-4">
          <mxGeometry x="105" y="150" width="30" height="30" as="geometry" />
        </mxCell>
        <mxCell id="u7SajtFIFtGNWAoB0oiT-31" value="[unavailable]" style="text;html=1;align=center;verticalAlign=middle;resizable=0;points=[];autosize=1;strokeColor=none;fillColor=none;" vertex="1" parent="u7SajtFIFtGNWAoB0oiT-4">
          <mxGeometry x="125" y="170" width="90" height="30" as="geometry" />
        </mxCell>
        <mxCell id="u7SajtFIFtGNWAoB0oiT-60" style="edgeStyle=orthogonalEdgeStyle;rounded=0;orthogonalLoop=1;jettySize=auto;html=1;entryX=0.5;entryY=0;entryDx=0;entryDy=0;" edge="1" parent="u7SajtFIFtGNWAoB0oiT-4" source="u7SajtFIFtGNWAoB0oiT-48" target="u7SajtFIFtGNWAoB0oiT-50">
          <mxGeometry relative="1" as="geometry" />
        </mxCell>
        <mxCell id="u7SajtFIFtGNWAoB0oiT-48" value="Authorize" style="rounded=1;whiteSpace=wrap;html=1;" vertex="1" parent="u7SajtFIFtGNWAoB0oiT-4">
          <mxGeometry x="105" y="220" width="100" height="30" as="geometry" />
        </mxCell>
        <mxCell id="u7SajtFIFtGNWAoB0oiT-50" value="" style="rhombus;whiteSpace=wrap;html=1;" vertex="1" parent="u7SajtFIFtGNWAoB0oiT-4">
          <mxGeometry x="105" y="290" width="30" height="30" as="geometry" />
        </mxCell>
        <mxCell id="u7SajtFIFtGNWAoB0oiT-55" value="[invalid credentials]" style="text;html=1;align=center;verticalAlign=middle;resizable=0;points=[];autosize=1;strokeColor=none;fillColor=none;" vertex="1" parent="u7SajtFIFtGNWAoB0oiT-4">
          <mxGeometry x="-10" y="318" width="130" height="30" as="geometry" />
        </mxCell>
        <mxCell id="u7SajtFIFtGNWAoB0oiT-54" value="[successful]" style="text;html=1;align=center;verticalAlign=middle;resizable=0;points=[];autosize=1;strokeColor=none;fillColor=none;" vertex="1" parent="u7SajtFIFtGNWAoB0oiT-4">
          <mxGeometry x="15" y="280" width="90" height="30" as="geometry" />
        </mxCell>
        <mxCell id="u7SajtFIFtGNWAoB0oiT-16" style="edgeStyle=orthogonalEdgeStyle;rounded=0;orthogonalLoop=1;jettySize=auto;html=1;entryX=1;entryY=0.5;entryDx=0;entryDy=0;" edge="1" parent="u7SajtFIFtGNWAoB0oiT-1" source="u7SajtFIFtGNWAoB0oiT-15" target="u7SajtFIFtGNWAoB0oiT-7">
          <mxGeometry relative="1" as="geometry">
            <mxPoint x="100" y="200" as="targetPoint" />
          </mxGeometry>
        </mxCell>
        <mxCell id="u7SajtFIFtGNWAoB0oiT-25" style="edgeStyle=orthogonalEdgeStyle;rounded=0;orthogonalLoop=1;jettySize=auto;html=1;entryX=0;entryY=0.5;entryDx=0;entryDy=0;" edge="1" parent="u7SajtFIFtGNWAoB0oiT-1" source="u7SajtFIFtGNWAoB0oiT-12" target="u7SajtFIFtGNWAoB0oiT-11">
          <mxGeometry relative="1" as="geometry">
            <mxPoint x="210" y="130" as="targetPoint" />
          </mxGeometry>
        </mxCell>
        <mxCell id="u7SajtFIFtGNWAoB0oiT-26" style="edgeStyle=orthogonalEdgeStyle;rounded=0;orthogonalLoop=1;jettySize=auto;html=1;exitX=1;exitY=0.5;exitDx=0;exitDy=0;" edge="1" parent="u7SajtFIFtGNWAoB0oiT-1" source="u7SajtFIFtGNWAoB0oiT-15" target="u7SajtFIFtGNWAoB0oiT-27">
          <mxGeometry relative="1" as="geometry">
            <mxPoint x="330" y="230" as="targetPoint" />
            <mxPoint x="570" y="185" as="sourcePoint" />
            <Array as="points">
              <mxPoint x="720" y="185" />
              <mxPoint x="720" y="380" />
            </Array>
          </mxGeometry>
        </mxCell>
        <mxCell id="u7SajtFIFtGNWAoB0oiT-34" style="edgeStyle=orthogonalEdgeStyle;rounded=0;orthogonalLoop=1;jettySize=auto;html=1;entryX=0;entryY=0.5;entryDx=0;entryDy=0;" edge="1" parent="u7SajtFIFtGNWAoB0oiT-1" source="u7SajtFIFtGNWAoB0oiT-32" target="u7SajtFIFtGNWAoB0oiT-35">
          <mxGeometry relative="1" as="geometry">
            <mxPoint x="240" y="290" as="targetPoint" />
          </mxGeometry>
        </mxCell>
        <mxCell id="u7SajtFIFtGNWAoB0oiT-45" style="edgeStyle=orthogonalEdgeStyle;rounded=0;orthogonalLoop=1;jettySize=auto;html=1;entryX=1;entryY=0.5;entryDx=0;entryDy=0;exitX=1;exitY=0.5;exitDx=0;exitDy=0;" edge="1" parent="u7SajtFIFtGNWAoB0oiT-1" source="u7SajtFIFtGNWAoB0oiT-27" target="u7SajtFIFtGNWAoB0oiT-20">
          <mxGeometry relative="1" as="geometry">
            <mxPoint x="479.5" y="255" as="sourcePoint" />
            <mxPoint x="150" y="150" as="targetPoint" />
            <Array as="points">
              <mxPoint x="740" y="395" />
              <mxPoint x="740" y="90" />
              <mxPoint x="300" y="90" />
              <mxPoint x="300" y="115" />
            </Array>
          </mxGeometry>
        </mxCell>
        <mxCell id="u7SajtFIFtGNWAoB0oiT-52" style="edgeStyle=orthogonalEdgeStyle;rounded=0;orthogonalLoop=1;jettySize=auto;html=1;exitX=0.5;exitY=1;exitDx=0;exitDy=0;" edge="1" parent="u7SajtFIFtGNWAoB0oiT-1" source="u7SajtFIFtGNWAoB0oiT-50" target="u7SajtFIFtGNWAoB0oiT-27">
          <mxGeometry relative="1" as="geometry">
            <Array as="points">
              <mxPoint x="660" y="360" />
              <mxPoint x="380" y="360" />
            </Array>
          </mxGeometry>
        </mxCell>
        <mxCell id="u7SajtFIFtGNWAoB0oiT-53" style="edgeStyle=orthogonalEdgeStyle;rounded=0;orthogonalLoop=1;jettySize=auto;html=1;entryX=0.4;entryY=0.02;entryDx=0;entryDy=0;entryPerimeter=0;exitX=0;exitY=0.5;exitDx=0;exitDy=0;" edge="1" parent="u7SajtFIFtGNWAoB0oiT-1" source="u7SajtFIFtGNWAoB0oiT-50" target="u7SajtFIFtGNWAoB0oiT-32">
          <mxGeometry relative="1" as="geometry">
            <Array as="points">
              <mxPoint x="380" y="325" />
              <mxPoint x="380" y="250" />
              <mxPoint x="110" y="250" />
              <mxPoint x="110" y="280" />
            </Array>
          </mxGeometry>
        </mxCell>
        <mxCell id="u7SajtFIFtGNWAoB0oiT-56" style="edgeStyle=orthogonalEdgeStyle;rounded=0;orthogonalLoop=1;jettySize=auto;html=1;entryX=0;entryY=0.5;entryDx=0;entryDy=0;" edge="1" parent="u7SajtFIFtGNWAoB0oiT-1" source="u7SajtFIFtGNWAoB0oiT-7" target="u7SajtFIFtGNWAoB0oiT-48">
          <mxGeometry relative="1" as="geometry">
            <Array as="points">
              <mxPoint x="110" y="230" />
              <mxPoint x="335" y="230" />
              <mxPoint x="335" y="240" />
              <mxPoint x="470" y="240" />
              <mxPoint x="470" y="255" />
            </Array>
          </mxGeometry>
        </mxCell>
        <mxCell id="u7SajtFIFtGNWAoB0oiT-43" style="edgeStyle=orthogonalEdgeStyle;rounded=0;orthogonalLoop=1;jettySize=auto;html=1;" edge="1" parent="u7SajtFIFtGNWAoB0oiT-1" source="u7SajtFIFtGNWAoB0oiT-39" target="u7SajtFIFtGNWAoB0oiT-42">
          <mxGeometry relative="1" as="geometry" />
        </mxCell>
      </root>
    </mxGraphModel>
  </diagram>
</mxfile>
